<svg id="Layer_1" data-name="Layer 1" xmlns="http://www.w3.org/2000/svg" viewBox="0 0 168.03 30.57"><defs><style>.cls-1{fill:#2db1ff;}.cls-2{fill:#fff;}</style></defs><path d="M163,13.17V11.59h-2.4V22.37h2.52V17.14a3.43,3.43,0,0,1,.83-2.47,3.05,3.05,0,0,1,2.3-.86,3.28,3.28,0,0,1,.59.06v-2.4C165,11.47,163.73,12,163,13.17Zm-7.61,9.2h3.07l-4.93-6.26L158,11.59h-3l-5.23,4.85v-9h-2.53v15h2.53V19.53l1.88-1.78ZM140,22.51a5.64,5.64,0,0,0,2.77-.65A4.4,4.4,0,0,0,144.57,20l-1.94-1.13A3.1,3.1,0,0,1,141.47,20a3.14,3.14,0,0,1-1.52.37,3.18,3.18,0,0,1-2.36-.92,3.32,3.32,0,0,1-.92-2.45,3.29,3.29,0,0,1,.93-2.45,3.21,3.21,0,0,1,2.35-.92,3.14,3.14,0,0,1,1.52.37,3.18,3.18,0,0,1,1.16,1.12L144.57,14a4.25,4.25,0,0,0-1.81-1.85,5.69,5.69,0,0,0-2.79-.65,6.29,6.29,0,0,0-3,.71,5.21,5.21,0,0,0-2.07,2,5.4,5.4,0,0,0-.75,2.84,5.48,5.48,0,0,0,.75,2.86,5.2,5.2,0,0,0,2.08,2A6.33,6.33,0,0,0,140,22.51Zm-13.43-9a3,3,0,0,1,3,2.62h-6.12a3,3,0,0,1,1-1.9A3,3,0,0,1,126.54,13.49ZM132,17a5.92,5.92,0,0,0-.7-2.92,4.89,4.89,0,0,0-1.93-1.95,5.62,5.62,0,0,0-2.82-.7,5.84,5.84,0,0,0-2.87.71,5.07,5.07,0,0,0-2,2A5.65,5.65,0,0,0,121,17a5.56,5.56,0,0,0,.73,2.86,5.1,5.1,0,0,0,2.09,2,7.36,7.36,0,0,0,5.64.26,4.52,4.52,0,0,0,1.83-1.31l-1.35-1.56A3.93,3.93,0,0,1,127,20.37a3.83,3.83,0,0,1-2.33-.69,3,3,0,0,1-1.16-1.89H132C132,17.47,132,17.22,132,17Zm-18.55-5.57a5.76,5.76,0,0,0-2,.35,4.19,4.19,0,0,0-1.55,1V7.39h-2.52v15h2.52V16.92a3.33,3.33,0,0,1,.81-2.41,2.91,2.91,0,0,1,2.2-.84,2.47,2.47,0,0,1,1.9.72,3.05,3.05,0,0,1,.66,2.13v5.85h2.53V16.19a4.71,4.71,0,0,0-1.23-3.53A4.52,4.52,0,0,0,113.44,11.47ZM98.82,22.57A8.19,8.19,0,0,0,102,22a6.51,6.51,0,0,0,2.43-1.76l-1.69-1.61A5,5,0,0,1,99,20.27a5.36,5.36,0,0,1-2.61-.63,4.68,4.68,0,0,1-1.79-1.77,5.39,5.39,0,0,1,0-5.13A4.68,4.68,0,0,1,96.35,11,5.36,5.36,0,0,1,99,10.34,5,5,0,0,1,102.74,12l1.69-1.59A6.55,6.55,0,0,0,102,8.64,8.14,8.14,0,0,0,98.84,8,7.92,7.92,0,0,0,95,9a7,7,0,0,0-2.71,2.59,7.14,7.14,0,0,0-1,3.74,7.12,7.12,0,0,0,1,3.73,7,7,0,0,0,2.7,2.6A8,8,0,0,0,98.82,22.57ZM88.64,20a2.18,2.18,0,0,1-1.41.44A1.41,1.41,0,0,1,86.12,20a1.7,1.7,0,0,1-.38-1.2V13.69h2.88v-2H85.74V9.21H83.21v2.46H81.43v2h1.78v5.19a3.58,3.58,0,0,0,1,2.71,3.86,3.86,0,0,0,2.75.92,4.93,4.93,0,0,0,1.34-.18,3,3,0,0,0,1.08-.54ZM75.2,22.51a6.17,6.17,0,0,0,3.57-.91,2.81,2.81,0,0,0,1.31-2.42,2.49,2.49,0,0,0-.59-1.77,3.3,3.3,0,0,0-1.43-.89,14.67,14.67,0,0,0-2.12-.47A10.11,10.11,0,0,1,74,15.58a.88.88,0,0,1-.61-.86,1,1,0,0,1,.57-.88,3.49,3.49,0,0,1,1.69-.33,6,6,0,0,1,3.09.81l1-1.92a6.36,6.36,0,0,0-1.82-.68,9.88,9.88,0,0,0-2.22-.25,5.84,5.84,0,0,0-3.46.92A2.85,2.85,0,0,0,71,14.84a2.58,2.58,0,0,0,.61,1.83,3.37,3.37,0,0,0,1.46.92,14.8,14.8,0,0,0,2.17.46,10.1,10.1,0,0,1,1.84.43.78.78,0,0,1,.58.78c0,.8-.76,1.19-2.26,1.19a7.08,7.08,0,0,1-2-.29,6,6,0,0,1-1.75-.78l-1,1.92a6.56,6.56,0,0,0,2,.87A9.65,9.65,0,0,0,75.2,22.51ZM65.42,11.59V17a3.35,3.35,0,0,1-.79,2.41,2.84,2.84,0,0,1-2.15.84,2.43,2.43,0,0,1-1.87-.71A3.13,3.13,0,0,1,60,17.41V11.59H57.43v6.16a4.73,4.73,0,0,0,1.24,3.56,4.69,4.69,0,0,0,3.4,1.2,4.93,4.93,0,0,0,2-.39A4.07,4.07,0,0,0,65.55,21v1.37H68V11.59ZM50.83,13.17V11.59H48.42V22.37H51V17.14a3.39,3.39,0,0,1,.83-2.47,3,3,0,0,1,2.3-.86,3.17,3.17,0,0,1,.58.06v-2.4C52.83,11.47,51.55,12,50.83,13.17ZM39,22.37h2.62V10.46h4.68V8.24h-12v2.22H39Z"/><circle class="cls-1" cx="15.28" cy="15.28" r="15.28"/><polygon class="cls-2" points="5.61 15.73 8.39 12.96 13 17.57 22 7.58 24.96 10.36 13.31 22.99 5.61 15.73"/></svg>